<svg width="37" height="38" viewBox="0 0 37 38" fill="none" xmlns="http://www.w3.org/2000/svg">
<g clip-path="url(#clip0_145_80)">
<path fill-rule="evenodd" clip-rule="evenodd" d="M30.4899 7.01411C30.8709 6.84943 31.2879 6.79263 31.6975 6.84963C32.1071 6.90663 32.4943 7.07534 32.8189 7.3382C33.1435 7.60106 33.3935 7.94846 33.543 8.34424C33.6925 8.74003 33.7359 9.16973 33.6688 9.58861L30.1723 31.3705C29.8331 33.4716 27.5885 34.6765 25.7123 33.6299C24.1429 32.7544 21.8119 31.4054 19.7152 29.9978C18.6669 29.2932 15.4556 27.0369 15.8502 25.4314C16.1894 24.0587 21.5852 18.9002 24.6686 15.8333C25.8788 14.6284 25.3269 13.9333 23.8977 15.0416C20.3473 17.7934 14.6508 21.9782 12.7669 23.1562C11.105 24.1949 10.2386 24.3722 9.20257 24.1949C7.31249 23.8719 5.55961 23.3715 4.12894 22.7619C2.19569 21.9386 2.28974 19.2089 4.1274 18.4141L30.4899 7.01411V7.01411Z" fill="#FE0000"/>
</g>
<defs>
<clipPath id="clip0_145_80">
<rect width="37" height="38" fill="white"/>
</clipPath>
</defs>
</svg>
