<svg width="55" height="38" viewBox="0 0 55 38" fill="none" xmlns="http://www.w3.org/2000/svg">
<path d="M30.3333 24.6666C30.3333 25.5506 29.9821 26.3985 29.3569 27.0236C28.7318 27.6487 27.884 27.9999 26.9999 27.9999C26.1159 27.9999 25.268 27.6487 24.6429 27.0236C24.0178 26.3985 23.6666 25.5506 23.6666 24.6666C23.6666 23.7825 24.0178 22.9347 24.6429 22.3096C25.268 21.6844 26.1159 21.3333 26.9999 21.3333C27.884 21.3333 28.7318 21.6844 29.3569 22.3096C29.9821 22.9347 30.3333 23.7825 30.3333 24.6666ZM33.6666 32.9999V34.6666H20.3333V32.9999C20.3333 31.1583 23.3166 29.6666 26.9999 29.6666C30.6833 29.6666 33.6666 31.1583 33.6666 32.9999Z" fill="#FE0000"/>
<path d="M5 26.3766C12.032 19.3008 30.6767 9.39466 49 26.3766C42.169 33.6387 23.8055 43.8055 5 26.3766Z" stroke="#FE0000" stroke-width="3"/>
<path d="M9.5 22.5L2 15M18 17.25L13 9" stroke="#FE0000" stroke-width="3" stroke-linecap="round" stroke-linejoin="round"/>
<path d="M36.7302 17.7073L41.8461 8.46601M44.4997 22.0001L52.4999 14.9999M27.2302 16.5179L27.2304 6.6062" stroke="#FE0000" stroke-width="3" stroke-linecap="round" stroke-linejoin="round"/>
</svg>
