<svg width="34" height="34" viewBox="0 0 34 34" fill="none" xmlns="http://www.w3.org/2000/svg">
<g clip-path="url(#clip0_146_4)">
<path d="M0 17C0 7.61114 7.61114 0 17 0C26.3889 0 34 7.61114 34 17C34 26.3889 26.3889 34 17 34C7.61114 34 0 26.3889 0 17Z" fill="#FE0000"/>
<path fill-rule="evenodd" clip-rule="evenodd" d="M16.656 0C16.5757 6.99392 16.1183 10.9081 13.5132 13.5132C10.9081 16.1183 6.99392 16.5757 0 16.656V17.671C6.99392 17.7512 10.9081 18.2086 13.5132 20.8137C16.0774 23.378 16.5608 27.2105 16.6519 34H17.675C17.7661 27.2105 18.2494 23.378 20.8137 20.8137C23.378 18.2494 27.2105 17.7661 34 17.675V16.6519C27.2105 16.5608 23.378 16.0774 20.8137 13.5132C18.2086 10.9081 17.7512 6.99392 17.671 0H16.656Z" fill="#FCE6EA"/>
</g>
<defs>
<clipPath id="clip0_146_4">
<rect width="34" height="34" fill="white"/>
</clipPath>
</defs>
</svg>
