<svg width="37" height="38" viewBox="0 0 37 38" fill="none" xmlns="http://www.w3.org/2000/svg">
<path fill-rule="evenodd" clip-rule="evenodd" d="M35.0271 9.79688C35.2844 8.95969 35.0271 8.35109 33.889 8.35109H30.1044C29.1498 8.35109 28.709 8.88398 28.4517 9.45398C28.4517 9.45398 26.5049 14.3227 23.7862 17.4793C22.9046 18.3921 22.5006 18.6964 22.0229 18.6964C21.7657 18.6964 21.4347 18.3921 21.4347 17.5557V9.75754C21.4347 8.76895 21.1413 8.3125 20.3327 8.3125H14.3809C13.7926 8.3125 13.4255 8.76895 13.4255 9.22539C13.4255 10.1761 14.7848 10.4047 14.9315 13.067V18.8516C14.9315 20.1066 14.7147 20.3359 14.2334 20.3359C12.9478 20.3359 9.82523 15.4293 7.95211 9.83844C7.58789 8.73109 7.21789 8.3125 6.26254 8.3125H2.44186C1.3398 8.3125 1.15625 8.84465 1.15625 9.41539C1.15625 10.4426 2.44186 15.6149 7.14418 22.4608C10.2668 27.1366 14.7118 29.6496 18.7161 29.6496C21.1413 29.6496 21.4347 29.0789 21.4347 28.1282V24.5909C21.4347 23.4502 21.6551 23.2602 22.4269 23.2602C22.9776 23.2602 23.9698 23.5637 26.2107 25.8081C28.782 28.4703 29.2228 29.6875 30.6558 29.6875H34.4396C35.5417 29.6875 36.0562 29.1168 35.7621 28.0139C35.4318 26.911 34.1824 25.3138 32.5658 23.4123C31.6841 22.348 30.3617 21.1687 29.9577 20.5979C29.407 19.8372 29.5537 19.5329 29.9577 18.8486C29.9209 18.8486 34.5502 12.0784 35.0271 9.79391" fill="#FE0000"/>
</svg>
