<svg width="149" height="73" viewBox="0 0 149 73" fill="none" xmlns="http://www.w3.org/2000/svg">
<path d="M53.6847 60.3687L45.3197 34.08C52.2623 29.5171 54.7646 18.6879 50.8234 8.31594C49.6147 5.13269 47.9251 2.3261 45.9273 0L17 11.1414C17.0534 14.2159 17.6546 17.4417 18.8632 20.6249C22.7013 30.7316 31.3821 37.0539 39.4057 36.2C39.4661 36.1936 39.5265 36.185 39.5869 36.1774L47.8808 62.2428C47.8808 62.2428 28.9969 72.9876 35.8454 73C42.694 73.0124 91.7208 55.0052 53.6847 60.3687Z" fill="#FB6F7A"/>
<path d="M32.5266 35.1527C32.5266 35.1527 26.2505 39.0441 32.8079 38.6711C39.3654 38.298 55.977 33.448 57.2263 36.1837C58.4756 38.9195 51.7305 42.4279 39.3026 43.5471C39.3026 43.5471 39.534 44.5663 40.4895 44.5782C52.5828 44.7284 60.38 40.3117 60.9418 42.801C62.0807 47.8339 40.2872 48.6706 40.43 49.1172C41.7912 53.4575 61.0932 45.9719 62.7806 48.4592C64.4679 50.9465 56.4007 57.6462 39.3683 52.91C39.3683 52.91 38.776 53.2675 39.9306 54.1539C48.4863 60.7242 59.6982 53.4372 60.7404 58.4322C61.6679 62.8792 31.9357 65.595 19.4468 51.3556C6.95794 37.1162 5.57865 36.4317 1.70881 32.5772C0.400933 31.2755 -0.0528013 29.7618 0.00480824 28.2235C0.200966 22.8616 6.57515 20.1022 10.7649 23.4755L22.692 33.0745L27.5321 32.2297L32.5266 35.1527Z" fill="#FE0000"/>
<path d="M104.46 19C104.46 20.08 104.267 20.8533 103.88 21.32C103.493 21.7733 102.907 22 102.12 22C101.347 22 100.78 21.7933 100.42 21.38C100.06 20.9533 99.88 20.2067 99.88 19.14L99.86 16.88H95.78V19C95.78 20.0933 95.5933 20.8667 95.22 21.32C94.8467 21.7733 94.2533 22 93.44 22C92.6667 22 92.1 21.7933 91.74 21.38C91.38 20.9533 91.2 20.2067 91.2 19.14L91.14 10.7C91.14 9.87333 91.3467 9.26667 91.76 8.88C92.1867 8.49333 92.7467 8.3 93.44 8.3C94.24 8.3 94.8267 8.44667 95.2 8.74C95.5867 9.03333 95.78 9.62667 95.78 10.52V13.88H99.84V10.7C99.84 10.14 99.94 9.68 100.14 9.32C100.353 8.94667 100.62 8.68667 100.94 8.54C101.273 8.38 101.667 8.3 102.12 8.3C102.893 8.3 103.473 8.44667 103.86 8.74C104.26 9.03333 104.46 9.62667 104.46 10.52V19ZM113.548 19.2C114.001 19.2 114.388 19 114.708 18.6C115.041 18.2 115.274 17.7067 115.408 17.12C115.554 16.5333 115.628 15.9067 115.628 15.24C115.628 14.56 115.554 13.92 115.408 13.32C115.261 12.7067 115.021 12.1867 114.688 11.76C114.368 11.3333 113.988 11.12 113.548 11.12C113.121 11.12 112.748 11.3333 112.428 11.76C112.108 12.1867 111.868 12.7067 111.708 13.32C111.548 13.9333 111.468 14.5733 111.468 15.24C111.468 15.9067 111.541 16.5333 111.688 17.12C111.848 17.7067 112.088 18.2 112.408 18.6C112.741 19 113.121 19.2 113.548 19.2ZM117.088 21.34C116.034 21.86 114.848 22.12 113.528 22.12C112.221 22.12 111.041 21.86 109.988 21.34C108.948 20.8067 108.114 20.0133 107.488 18.96C106.861 17.9067 106.548 16.6667 106.548 15.24C106.548 13.08 107.194 11.3667 108.488 10.1C109.794 8.82 111.481 8.18 113.548 8.18C115.614 8.18 117.301 8.82 118.608 10.1C119.914 11.3667 120.568 13.08 120.568 15.24C120.568 16.6667 120.248 17.9067 119.608 18.96C118.981 20.0133 118.141 20.8067 117.088 21.34ZM125.442 22C124.828 21.9867 124.335 21.8933 123.962 21.72C123.588 21.5333 123.308 21.2333 123.122 20.82C122.935 20.4067 122.842 19.8533 122.842 19.16V10.7C122.842 9.99333 123.048 9.42 123.462 8.98C123.875 8.52667 124.422 8.3 125.102 8.3C125.902 8.3 126.488 8.44667 126.862 8.74C127.248 9.03333 127.442 9.62667 127.442 10.52V18.54H130.862C131.635 18.54 132.175 18.6533 132.482 18.88C132.802 19.1067 132.962 19.5733 132.962 20.28C132.962 21 132.782 21.4667 132.422 21.68C132.062 21.8933 131.475 22 130.662 22H125.442ZM139.75 19.28C140.096 19.28 140.396 19.2467 140.65 19.18C140.916 19.1 141.163 18.9667 141.39 18.78C141.63 18.58 141.823 18.32 141.97 18C142.116 17.68 142.23 17.2733 142.31 16.78C142.403 16.2733 142.45 15.68 142.45 15C142.45 14.24 142.383 13.6 142.25 13.08C142.116 12.5467 141.923 12.1467 141.67 11.88C141.416 11.6 141.136 11.4067 140.83 11.3C140.536 11.18 140.176 11.1133 139.75 11.1V19.28ZM140.35 8.32C142.43 8.32 144.096 8.92 145.35 10.12C146.616 11.32 147.25 12.9733 147.25 15.08C147.25 15.76 147.183 16.42 147.05 17.06C146.93 17.7 146.723 18.3267 146.43 18.94C146.136 19.54 145.77 20.0667 145.33 20.52C144.89 20.96 144.33 21.32 143.65 21.6C142.97 21.8667 142.203 22 141.35 22H137.41C136.596 22 136.01 21.7933 135.65 21.38C135.303 20.9667 135.13 20.22 135.13 19.14V10.7C135.13 9.11333 135.89 8.32 137.41 8.32H140.35ZM103.14 36.68L100.64 41.8C100.427 42.2267 100.2 42.5333 99.96 42.72C99.72 42.8933 99.4333 42.98 99.1 42.98C98.6733 42.98 98.3133 42.8333 98.02 42.54C97.7267 42.2333 97.3467 41.6867 96.88 40.9L94.56 36.68V42.34C94.56 42.9133 94.4267 43.3333 94.16 43.6C93.9067 43.8667 93.52 44 93 44C92.4133 44 91.9867 43.8733 91.72 43.62C91.4533 43.3533 91.32 42.84 91.32 42.08V33.36C91.32 32.3333 91.5533 31.56 92.02 31.04C92.4867 30.52 93.2733 30.26 94.38 30.26C94.7933 30.26 95.1533 30.3333 95.46 30.48C95.7667 30.6133 95.9933 30.7733 96.14 30.96C96.3 31.1333 96.4533 31.3533 96.6 31.62L99.28 37.48L102.12 31.72C102.613 30.76 103.5 30.28 104.78 30.28C105.38 30.28 105.893 30.3867 106.32 30.6C106.747 30.8 107.08 31.1333 107.32 31.6C107.573 32.0533 107.7 32.6267 107.7 33.32V42.02C107.687 43.34 106.853 44 105.2 44C104.6 44 104.107 43.84 103.72 43.52C103.347 43.1867 103.153 42.6533 103.14 41.92V36.68ZM118.033 41C118.033 42.08 117.839 42.8533 117.453 43.32C117.066 43.7733 116.473 44 115.673 44C114.899 44 114.333 43.7933 113.973 43.38C113.613 42.9533 113.426 42.2067 113.413 41.14L113.393 37.9L110.313 34.3C109.753 33.66 109.473 33.1067 109.473 32.64C109.473 31.9067 109.753 31.3267 110.313 30.9C110.846 30.5 111.319 30.3 111.733 30.3C112.306 30.3 112.819 30.56 113.273 31.08L115.713 33.92L117.753 31.54C118.433 30.7267 119.159 30.32 119.933 30.32C120.506 30.32 120.953 30.48 121.273 30.8C121.819 31.3467 122.093 31.8733 122.093 32.38C122.093 32.66 121.999 32.96 121.813 33.28C121.626 33.5867 121.326 33.9867 120.913 34.48L118.033 38V41ZM103.26 62.86C103.78 62.86 104.14 62.58 104.34 62.02C104.54 61.4467 104.64 60.52 104.64 59.24L104.68 54.34C104.68 53.6333 104.84 53.12 105.16 52.8C105.493 52.4667 106.06 52.3 106.86 52.3C107.353 52.3 107.747 52.38 108.04 52.54C108.347 52.7 108.607 53.0133 108.82 53.48C109.033 53.9467 109.18 54.58 109.26 55.38C109.34 56.18 109.38 57.24 109.38 58.56C109.38 59.3467 109.313 60.08 109.18 60.76C109.047 61.44 108.867 62.0333 108.64 62.54C108.413 63.0467 108.14 63.5067 107.82 63.92C107.513 64.32 107.187 64.6533 106.84 64.92C106.493 65.1867 106.127 65.4133 105.74 65.6C105.353 65.7733 104.973 65.9 104.6 65.98C104.24 66.0467 103.887 66.08 103.54 66.08C102.34 66.08 101.253 65.7 100.28 64.94C99.32 65.7267 98.2333 66.12 97.02 66.12C96.5 66.12 95.98 66.0467 95.46 65.9C94.94 65.74 94.4067 65.4733 93.86 65.1C93.3267 64.7267 92.8533 64.2667 92.44 63.72C92.0267 63.16 91.6867 62.44 91.42 61.56C91.1667 60.6667 91.04 59.68 91.04 58.6C91.04 56.8533 91.12 55.5333 91.28 54.64C91.4533 53.7467 91.7067 53.14 92.04 52.82C92.3867 52.5 92.8867 52.34 93.54 52.34C94.0867 52.34 94.52 52.42 94.84 52.58C95.16 52.7267 95.3867 52.9467 95.52 53.24C95.6533 53.5333 95.72 53.9133 95.72 54.38L95.74 59.26C95.74 60.54 95.84 61.4667 96.04 62.04C96.24 62.6133 96.6333 62.9 97.22 62.9C97.5133 62.9 97.7333 62.78 97.88 62.54C98.0267 62.2867 98.1267 61.8867 98.18 61.34C98.0067 60.5667 97.92 59.36 97.92 57.72C97.92 56.8 97.94 56.0667 97.98 55.52C98.02 54.9733 98.08 54.5 98.16 54.1C98.24 53.7 98.3733 53.4133 98.56 53.24C98.7467 53.0667 98.9533 52.9467 99.18 52.88C99.42 52.8 99.7467 52.76 100.16 52.76C100.4 52.76 100.607 52.7667 100.78 52.78C100.967 52.7933 101.14 52.8333 101.3 52.9C101.46 52.9667 101.593 53.0267 101.7 53.08C101.807 53.1333 101.907 53.2333 102 53.38C102.093 53.5267 102.167 53.6533 102.22 53.76C102.273 53.8667 102.32 54.04 102.36 54.28C102.413 54.52 102.447 54.7333 102.46 54.92C102.487 55.0933 102.5 55.36 102.5 55.72C102.513 56.0667 102.52 56.3733 102.52 56.64C102.533 56.8933 102.54 57.26 102.54 57.74C102.54 59.42 102.453 60.66 102.28 61.46C102.333 61.94 102.433 62.2933 102.58 62.52C102.727 62.7467 102.953 62.86 103.26 62.86ZM116.391 63C116.391 64.04 116.197 64.8 115.811 65.28C115.424 65.76 114.837 66 114.051 66C113.277 66 112.704 65.7933 112.331 65.38C111.971 64.9667 111.791 64.2267 111.791 63.16V54.7C111.791 53.1 112.544 52.3 114.051 52.3C114.824 52.3 115.404 52.4467 115.791 52.74C116.191 53.0333 116.391 53.6267 116.391 54.52V63ZM131.796 64.1C131.796 64.6867 131.622 65.1533 131.276 65.5C130.929 65.8333 130.422 66 129.756 66C129.582 66 129.409 65.98 129.236 65.94C129.062 65.9 128.876 65.8267 128.676 65.72C128.489 65.6133 128.322 65.5133 128.176 65.42C128.029 65.3267 127.842 65.1867 127.616 65C127.402 64.8 127.229 64.6467 127.096 64.54C126.976 64.42 126.782 64.2333 126.516 63.98C126.249 63.7267 126.056 63.54 125.936 63.42L122.276 59.96V64.3C122.276 64.9533 122.149 65.4 121.896 65.64C121.656 65.88 121.269 66 120.736 66C120.149 66 119.716 65.8667 119.436 65.6C119.156 65.3333 119.016 64.8867 119.016 64.26V54.6C119.016 53.84 119.209 53.2667 119.596 52.88C119.982 52.4933 120.536 52.3 121.256 52.3C121.749 52.3 122.142 52.38 122.436 52.54C122.742 52.6867 123.102 52.96 123.516 53.36L128.576 58.4V54.04C128.576 53.4667 128.716 53.04 128.996 52.76C129.289 52.4667 129.682 52.32 130.176 52.32C130.749 52.32 131.162 52.4533 131.416 52.72C131.669 52.9867 131.796 53.42 131.796 54.02V64.1ZM142.565 57.88C143.271 57.88 143.765 57.9933 144.045 58.22C144.338 58.4467 144.485 58.8333 144.485 59.38C144.485 59.8333 144.311 60.16 143.965 60.36C143.631 60.5467 143.105 60.64 142.385 60.64H139.145V62.76L143.485 62.78C144.231 62.78 144.765 62.8933 145.085 63.12C145.418 63.3333 145.585 63.72 145.585 64.28C145.585 64.92 145.391 65.3667 145.005 65.62C144.631 65.8733 144.058 66 143.285 66H136.805C136.018 66 135.438 65.7933 135.065 65.38C134.705 64.9533 134.525 64.2067 134.525 63.14V54.7C134.525 53.1 135.285 52.3 136.805 52.3H143.285C144.058 52.3 144.631 52.42 145.005 52.66C145.391 52.9 145.585 53.3333 145.585 53.96C145.585 54.5467 145.418 54.96 145.085 55.2C144.765 55.4267 144.231 55.54 143.485 55.54H139.125V57.88H142.565Z" fill="#FE0000"/>
</svg>
